<svg height="152" viewBox="0 0 152 152" width="152" xmlns="http://www.w3.org/2000/svg"><path d="m68.020065 146.51611c-9.600375-1.46125-16.601941-3.63965-24.250467-7.54509-18.804075-9.60161-31.871289-26.56169-36.9331712-47.935933-.905323-3.822811-1.1646564-7.298087-1.3920153-18.654094l-.279409-13.956027h17.6945645 17.694557l.235636 12.297885c.204666 10.681401.391378 12.770126 1.420454 15.890525 4.813751 14.596444 18.772565 24.852934 33.824204 24.852934 15.043459 0 28.846802-10.13043 33.863612-24.852934 1.21134-3.554815 1.22595-4.001459 1.38828-42.420795l.16409-38.828156h17.6923 17.6923l-.20189 40.486298c-.19364 38.835495-.249 40.677863-1.35757 45.184364-5.33395 21.683243-18.20576 38.367883-36.97627 47.929193-10.46962 5.33302-18.321277 7.29999-30.33032 7.59828-4.55989.11331-9.036873.0924-9.948851-.0465zm-62.7330336-123.464837v-17.686848h17.6868466 17.686847v17.686848 17.686846h-17.686847-17.6868466z" stroke-width=".552714"/></svg>